# xmcd
#
# Track frame offsets: 
#        150
#        15004
#        25897
#        37260
#        48125
#        61083
#        71739
#        83869
#        96772
#        109113
#
# Disc length: 1627 seconds
#
# Revision: 0
# Processed by: cddbd v1.5.2PL0 Copyright (c) Steve Scherf et al.
# Submitted via: ExactAudioCopy v1.3
#
DISCID=7406590a
DTITLE=Lester Flatt and Earl Scruggs - Sacred Songs
DYEAR=1967
DGENRE=Bluegrass
TTITLE0=Mother Prays Loud In Her Sleep
TTITLE1=You Can Feel It In Your Soul
TTITLE2=Gone Home
TTITLE3=Joy Bells
TTITLE4=He Took Your Place
TTITLE5=Bubbling In My Soul
TTITLE6=The Old Fashioned Preacher
TTITLE7=I'm Working On A Road
TTITLE8=Be Ready For Tomorrow May Never Come
TTITLE9=Give Mother My Crown
EXTD=
EXTT0=
EXTT1=
EXTT2=
EXTT3=
EXTT4=
EXTT5=
EXTT6=
EXTT7=
EXTT8=
EXTT9=
PLAYORDER=
